<mxfile host="Electron" agent="Mozilla/5.0 (Windows NT 10.0; Win64; x64) AppleWebKit/537.36 (KHTML, like Gecko) draw.io/28.2.5 Chrome/138.0.7204.251 Electron/37.6.1 Safari/537.36" version="28.2.5">
  <diagram name="Page-1" id="z80AFTFk2clcP9LVrkSo">
    <mxGraphModel dx="951" dy="549" grid="1" gridSize="10" guides="1" tooltips="1" connect="1" arrows="1" fold="1" page="1" pageScale="1" pageWidth="827" pageHeight="1169" math="0" shadow="0">
      <root>
        <mxCell id="0" />
        <mxCell id="1" parent="0" />
        <mxCell id="HjrSr5QOwQCXyB6pTclA-1" value="" style="html=1;verticalLabelPosition=bottom;labelBackgroundColor=#ffffff;verticalAlign=top;shadow=0;dashed=0;strokeWidth=1;shape=mxgraph.ios7.misc.iphone;strokeColor=#c0c0c0;" vertex="1" parent="1">
          <mxGeometry x="88" y="49" width="180" height="310" as="geometry" />
        </mxCell>
        <mxCell id="HjrSr5QOwQCXyB6pTclA-2" value="" style="rounded=0;whiteSpace=wrap;html=1;fillColor=#99FF33;" vertex="1" parent="1">
          <mxGeometry x="101" y="279" width="157" height="33" as="geometry" />
        </mxCell>
        <mxCell id="HjrSr5QOwQCXyB6pTclA-3" value="" style="endArrow=none;dashed=1;html=1;dashPattern=1 3;strokeWidth=2;rounded=0;exitX=0.05;exitY=0.648;exitDx=0;exitDy=0;exitPerimeter=0;entryX=0.928;entryY=0.652;entryDx=0;entryDy=0;entryPerimeter=0;" edge="1" parent="1">
          <mxGeometry width="50" height="50" relative="1" as="geometry">
            <mxPoint x="97" y="250.88" as="sourcePoint" />
            <mxPoint x="255.03999999999996" y="252.12" as="targetPoint" />
            <Array as="points" />
          </mxGeometry>
        </mxCell>
        <mxCell id="HjrSr5QOwQCXyB6pTclA-4" value="" style="shape=flexArrow;endArrow=classic;html=1;rounded=0;width=10;endSize=7.44;" edge="1" parent="1">
          <mxGeometry width="50" height="50" relative="1" as="geometry">
            <mxPoint x="108" y="214" as="sourcePoint" />
            <mxPoint x="138" y="184" as="targetPoint" />
          </mxGeometry>
        </mxCell>
        <mxCell id="HjrSr5QOwQCXyB6pTclA-9" value="" style="html=1;verticalLabelPosition=bottom;labelBackgroundColor=#ffffff;verticalAlign=top;shadow=0;dashed=0;strokeWidth=1;shape=mxgraph.ios7.misc.iphone;strokeColor=#c0c0c0;" vertex="1" parent="1">
          <mxGeometry x="298" y="50" width="180" height="310" as="geometry" />
        </mxCell>
        <mxCell id="HjrSr5QOwQCXyB6pTclA-10" value="" style="rounded=0;whiteSpace=wrap;html=1;fillColor=#99FF33;" vertex="1" parent="1">
          <mxGeometry x="311" y="280" width="157" height="33" as="geometry" />
        </mxCell>
        <mxCell id="HjrSr5QOwQCXyB6pTclA-11" value="" style="endArrow=none;dashed=1;html=1;dashPattern=1 3;strokeWidth=2;rounded=0;exitX=0.05;exitY=0.648;exitDx=0;exitDy=0;exitPerimeter=0;entryX=0.928;entryY=0.652;entryDx=0;entryDy=0;entryPerimeter=0;" edge="1" parent="1">
          <mxGeometry width="50" height="50" relative="1" as="geometry">
            <mxPoint x="307" y="251.88" as="sourcePoint" />
            <mxPoint x="465.03999999999996" y="253.12" as="targetPoint" />
            <Array as="points" />
          </mxGeometry>
        </mxCell>
        <mxCell id="HjrSr5QOwQCXyB6pTclA-12" value="" style="shape=flexArrow;endArrow=classic;html=1;rounded=0;width=10;endSize=7.44;" edge="1" parent="1">
          <mxGeometry width="50" height="50" relative="1" as="geometry">
            <mxPoint x="318" y="170" as="sourcePoint" />
            <mxPoint x="348" y="140" as="targetPoint" />
          </mxGeometry>
        </mxCell>
        <mxCell id="HjrSr5QOwQCXyB6pTclA-13" value="" style="html=1;verticalLabelPosition=bottom;labelBackgroundColor=#ffffff;verticalAlign=top;shadow=0;dashed=0;strokeWidth=1;shape=mxgraph.ios7.misc.iphone;strokeColor=#c0c0c0;" vertex="1" parent="1">
          <mxGeometry x="518" y="49" width="180" height="310" as="geometry" />
        </mxCell>
        <mxCell id="HjrSr5QOwQCXyB6pTclA-14" value="" style="rounded=0;whiteSpace=wrap;html=1;fillColor=#99FF33;" vertex="1" parent="1">
          <mxGeometry x="531" y="279" width="157" height="33" as="geometry" />
        </mxCell>
        <mxCell id="HjrSr5QOwQCXyB6pTclA-15" value="" style="endArrow=none;dashed=1;html=1;dashPattern=1 3;strokeWidth=2;rounded=0;exitX=0.05;exitY=0.648;exitDx=0;exitDy=0;exitPerimeter=0;entryX=0.928;entryY=0.652;entryDx=0;entryDy=0;entryPerimeter=0;" edge="1" parent="1">
          <mxGeometry width="50" height="50" relative="1" as="geometry">
            <mxPoint x="527" y="250.88" as="sourcePoint" />
            <mxPoint x="685.04" y="252.12" as="targetPoint" />
            <Array as="points" />
          </mxGeometry>
        </mxCell>
        <mxCell id="HjrSr5QOwQCXyB6pTclA-16" value="" style="shape=flexArrow;endArrow=classic;html=1;rounded=0;width=10;endSize=7.44;" edge="1" parent="1">
          <mxGeometry width="50" height="50" relative="1" as="geometry">
            <mxPoint x="538" y="149" as="sourcePoint" />
            <mxPoint x="568" y="119" as="targetPoint" />
          </mxGeometry>
        </mxCell>
        <mxCell id="HjrSr5QOwQCXyB6pTclA-21" value="" style="verticalLabelPosition=bottom;verticalAlign=top;html=1;shape=mxgraph.basic.patternFillRect;fillStyle=hor;step=5;fillStrokeWidth=0.2;fillStrokeColor=#dddddd;fillColor=#FF8000;rotation=-30;" vertex="1" parent="1">
          <mxGeometry x="128" y="255" width="70" height="6" as="geometry" />
        </mxCell>
        <mxCell id="HjrSr5QOwQCXyB6pTclA-22" value="" style="verticalLabelPosition=bottom;verticalAlign=top;html=1;shape=mxgraph.basic.patternFillRect;fillStyle=hor;step=5;fillStrokeWidth=0.2;fillStrokeColor=#dddddd;fillColor=#FF8000;rotation=-60;" vertex="1" parent="1">
          <mxGeometry x="141" y="219" width="70" height="6" as="geometry" />
        </mxCell>
        <mxCell id="HjrSr5QOwQCXyB6pTclA-23" value="" style="verticalLabelPosition=bottom;verticalAlign=top;html=1;shape=mxgraph.basic.patternFillRect;fillStyle=hor;step=5;fillStrokeWidth=0.2;fillStrokeColor=#dddddd;fillColor=#FF8000;direction=south;rotation=-45;" vertex="1" parent="1">
          <mxGeometry x="210" y="217" width="6" height="70" as="geometry" />
        </mxCell>
        <mxCell id="HjrSr5QOwQCXyB6pTclA-24" value="" style="verticalLabelPosition=bottom;verticalAlign=top;html=1;shape=mxgraph.basic.patternFillRect;fillStyle=hor;step=5;fillStrokeWidth=0.2;fillStrokeColor=#dddddd;fillColor=#FF8000;rotation=75;" vertex="1" parent="1">
          <mxGeometry x="170" y="206" width="70" height="6" as="geometry" />
        </mxCell>
        <mxCell id="HjrSr5QOwQCXyB6pTclA-25" value="" style="verticalLabelPosition=bottom;verticalAlign=top;html=1;shape=mxgraph.basic.patternFillRect;fillStyle=hor;step=5;fillStrokeWidth=0.2;fillStrokeColor=#dddddd;fillColor=#FF8000;rotation=15;" vertex="1" parent="1">
          <mxGeometry x="396" y="263" width="70" height="6" as="geometry" />
        </mxCell>
        <mxCell id="HjrSr5QOwQCXyB6pTclA-26" value="" style="verticalLabelPosition=bottom;verticalAlign=top;html=1;shape=mxgraph.basic.patternFillRect;fillStyle=hor;step=5;fillStrokeWidth=0.2;fillStrokeColor=#dddddd;fillColor=#FF8000;rotation=-30;" vertex="1" parent="1">
          <mxGeometry x="314" y="256" width="70" height="6" as="geometry" />
        </mxCell>
        <mxCell id="HjrSr5QOwQCXyB6pTclA-27" value="" style="verticalLabelPosition=bottom;verticalAlign=top;html=1;shape=mxgraph.basic.patternFillRect;fillStyle=hor;step=5;fillStrokeWidth=0.2;fillStrokeColor=#dddddd;fillColor=#FF8000;rotation=-90;" vertex="1" parent="1">
          <mxGeometry x="532" y="205" width="70" height="6" as="geometry" />
        </mxCell>
        <mxCell id="HjrSr5QOwQCXyB6pTclA-28" value="" style="verticalLabelPosition=bottom;verticalAlign=top;html=1;shape=mxgraph.basic.patternFillRect;fillStyle=hor;step=5;fillStrokeWidth=0.2;fillStrokeColor=#dddddd;fillColor=#FF8000;rotation=-45;" vertex="1" parent="1">
          <mxGeometry x="532" y="249" width="70" height="6" as="geometry" />
        </mxCell>
        <mxCell id="HjrSr5QOwQCXyB6pTclA-29" value="" style="verticalLabelPosition=bottom;verticalAlign=top;html=1;shape=mxgraph.basic.patternFillRect;fillStyle=hor;step=5;fillStrokeWidth=0.2;fillStrokeColor=#dddddd;fillColor=#FF8000;rotation=30;" vertex="1" parent="1">
          <mxGeometry x="580" y="255" width="70" height="6" as="geometry" />
        </mxCell>
        <mxCell id="HjrSr5QOwQCXyB6pTclA-30" value="" style="verticalLabelPosition=bottom;verticalAlign=top;html=1;shape=mxgraph.basic.patternFillRect;fillStyle=hor;step=5;fillStrokeWidth=0.2;fillStrokeColor=#dddddd;fillColor=#FF8000;rotation=20;" vertex="1" parent="1">
          <mxGeometry x="616" y="262" width="70" height="6" as="geometry" />
        </mxCell>
        <mxCell id="HjrSr5QOwQCXyB6pTclA-31" value="" style="verticalLabelPosition=bottom;verticalAlign=top;html=1;shape=mxgraph.basic.patternFillRect;fillStyle=hor;step=5;fillStrokeWidth=0.2;fillStrokeColor=#dddddd;fillColor=#FF8000;rotation=90;" vertex="1" parent="1">
          <mxGeometry x="598" y="216" width="70" height="6" as="geometry" />
        </mxCell>
        <mxCell id="HjrSr5QOwQCXyB6pTclA-32" value="" style="verticalLabelPosition=bottom;verticalAlign=top;html=1;shape=mxgraph.basic.patternFillRect;fillStyle=hor;step=5;fillStrokeWidth=0.2;fillStrokeColor=#dddddd;fillColor=#FF8000;rotation=15;" vertex="1" parent="1">
          <mxGeometry x="375" y="264" width="70" height="6" as="geometry" />
        </mxCell>
        <mxCell id="HjrSr5QOwQCXyB6pTclA-33" value="" style="verticalLabelPosition=bottom;verticalAlign=top;html=1;shape=mxgraph.basic.patternFillRect;fillStyle=hor;step=5;fillStrokeWidth=0.2;fillStrokeColor=#dddddd;fillColor=#FF8000;" vertex="1" parent="1">
          <mxGeometry x="338" y="271" width="70" height="6" as="geometry" />
        </mxCell>
        <mxCell id="HjrSr5QOwQCXyB6pTclA-34" value="" style="verticalLabelPosition=bottom;verticalAlign=top;html=1;shape=mxgraph.basic.patternFillRect;fillStyle=hor;step=5;fillStrokeWidth=0.2;fillStrokeColor=#dddddd;fillColor=#FF8000;rotation=15;" vertex="1" parent="1">
          <mxGeometry x="560" y="173" width="70" height="6" as="geometry" />
        </mxCell>
        <mxCell id="HjrSr5QOwQCXyB6pTclA-35" value="" style="verticalLabelPosition=bottom;verticalAlign=top;html=1;shape=mxgraph.basic.patternFillRect;fillStyle=hor;step=5;fillStrokeWidth=0.2;fillStrokeColor=#dddddd;fillColor=#FF8000;rotation=-30;" vertex="1" parent="1">
          <mxGeometry x="555" y="142" width="70" height="6" as="geometry" />
        </mxCell>
        <mxCell id="HjrSr5QOwQCXyB6pTclA-37" value="" style="verticalLabelPosition=bottom;verticalAlign=top;html=1;shape=mxgraph.basic.patternFillRect;fillStyle=hor;step=5;fillStrokeWidth=0.2;fillStrokeColor=#dddddd;fillColor=#FF8000;rotation=75;" vertex="1" parent="1">
          <mxGeometry x="593" y="145" width="70" height="6" as="geometry" />
        </mxCell>
        <mxCell id="HjrSr5QOwQCXyB6pTclA-39" value="GO" style="ellipse;whiteSpace=wrap;html=1;aspect=fixed;fillColor=#B3FF66;" vertex="1" parent="1">
          <mxGeometry x="229" y="105" width="21" height="21" as="geometry" />
        </mxCell>
        <mxCell id="HjrSr5QOwQCXyB6pTclA-40" value="Better luck, next time." style="rounded=0;whiteSpace=wrap;html=1;fillColor=#FF9999;" vertex="1" parent="1">
          <mxGeometry x="328" y="109" width="120" height="20" as="geometry" />
        </mxCell>
        <mxCell id="HjrSr5QOwQCXyB6pTclA-41" value="Object of the game is to select one piece of timber to remove and then click go and attempt to have all the pieces fall under gravity and end up below the line. Progressive levels increase in complexity, number of pieces, height of line, variable size pieces." style="rounded=1;whiteSpace=wrap;html=1;" vertex="1" parent="1">
          <mxGeometry x="170" y="380" width="490" height="60" as="geometry" />
        </mxCell>
        <mxCell id="HjrSr5QOwQCXyB6pTclA-42" value="CRAAASH" style="rounded=1;whiteSpace=wrap;html=1;" vertex="1" parent="1">
          <mxGeometry x="252" y="10" width="250" height="30" as="geometry" />
        </mxCell>
      </root>
    </mxGraphModel>
  </diagram>
</mxfile>
